<svg width="637" height="79" viewBox="0 0 637 79" fill="none" xmlns="http://www.w3.org/2000/svg">
<path d="M59.4205 0.295998C61.4685 0.295998 63.7085 0.775997 66.1405 1.736C68.3805 2.632 69.5005 4.328 69.5005 6.824V72.968C69.5005 76.04 67.6125 77.576 63.8365 77.576C60.0605 77.576 58.1725 76.04 58.1725 72.968V23.624L55.3885 23.336L51.5485 35.816L40.0285 74.216C39.3245 76.456 37.5965 77.544 34.8445 77.48C33.6285 77.416 32.5725 77.096 31.6765 76.52C30.7805 75.944 30.1725 75.112 29.8525 74.024L22.9405 51.656C21.5325 47.24 20.1245 42.76 18.7165 38.216C17.3085 33.608 15.7725 28.52 14.1085 22.952L11.3245 23.336V72.968C11.3245 76.04 9.43649 77.576 5.66049 77.576C1.88449 77.576 -0.00351334 76.04 -0.00351334 72.968V6.824C-0.00351334 4.392 1.11649 2.696 3.35649 1.736C5.72449 0.775997 7.99649 0.327997 10.1725 0.391996C11.1325 0.391996 12.1245 0.519997 13.1485 0.775997C14.1725 1.032 15.1325 1.416 16.0285 1.92799C16.9245 2.376 17.7245 2.984 18.4285 3.752C19.1325 4.456 19.6765 5.288 20.0605 6.248L35.1325 57.608C36.2205 53.832 37.3725 49.736 38.5885 45.32C39.8045 40.904 41.0525 36.424 42.3325 31.88C43.6125 27.336 44.8605 22.856 46.0765 18.44C47.3565 13.96 48.5405 9.8 49.6285 5.96C50.0125 5.064 50.5565 4.264 51.2605 3.56C51.9645 2.856 52.7645 2.28 53.6605 1.832C54.5565 1.32 55.4845 0.935999 56.4445 0.679998C57.4685 0.423998 58.4605 0.295998 59.4205 0.295998ZM117.824 77C115.84 77 113.952 76.744 112.16 76.232C110.368 75.656 108.64 74.856 106.976 73.832V73.928C103.84 71.944 102.272 68.296 102.272 62.984V58.28C102.272 55.656 102.72 53.384 103.616 51.464C104.576 49.48 105.888 47.912 107.552 46.76H107.456C109.056 45.672 110.752 44.872 112.544 44.36C114.336 43.784 116.064 43.496 117.728 43.496H138.944V34.568C138.944 32.968 138.432 31.528 137.408 30.248C136.448 28.904 134.784 28.232 132.416 28.232H121.184C118.752 28.232 117.056 28.84 116.096 30.056C115.2 31.208 114.752 32.584 114.752 34.184V34.952C114.752 38.28 112.96 39.944 109.376 39.944C105.792 39.944 104 38.28 104 34.952V34.088C104 31.464 104.448 29.256 105.344 27.464C106.304 25.672 107.584 24.168 109.184 22.952H109.088C110.752 21.864 112.48 20.968 114.272 20.264C116.128 19.56 117.888 19.208 119.552 19.208H134.144C135.744 19.208 137.44 19.56 139.232 20.264C141.088 20.968 142.816 21.864 144.416 22.952H144.32C145.984 24.168 147.264 25.768 148.16 27.752C149.056 29.672 149.504 31.912 149.504 34.472V72.968C149.504 76.04 147.744 77.576 144.224 77.576C143.52 77.576 142.848 77.544 142.208 77.48C141.632 77.416 141.088 77.256 140.576 77C140.128 76.68 139.744 76.264 139.424 75.752C139.168 75.176 139.04 74.44 139.04 73.544L138.944 52.52H119.552C118.144 52.52 117.056 52.68 116.288 53C115.52 53.32 114.912 53.832 114.464 54.536C113.952 55.624 113.568 56.488 113.312 57.128C113.12 57.704 113.024 58.376 113.024 59.144V62.888C113.024 64.552 113.504 65.832 114.464 66.728C115.488 67.56 117.216 67.976 119.648 67.976H130.4C132.768 67.976 133.952 69.48 133.952 72.488C133.952 73.768 133.664 74.856 133.088 75.752C132.512 76.584 131.616 77 130.4 77H117.824ZM193.602 60.968V73.16C193.602 76.168 191.842 77.672 188.322 77.672C184.802 77.672 183.042 76.168 183.042 73.16V4.808C183.042 1.736 184.802 0.199999 188.322 0.199999C191.842 0.199999 193.602 1.736 193.602 4.808V45.512C195.202 43.592 196.962 41.544 198.882 39.368C200.866 37.128 202.818 34.888 204.738 32.648C206.722 30.344 208.674 28.104 210.594 25.928C212.514 23.688 214.306 21.608 215.97 19.688V19.784C217.122 18.44 218.274 17.768 219.426 17.768C220.066 17.768 220.674 17.928 221.25 18.248C221.89 18.504 222.562 18.888 223.266 19.4H223.17C224.706 20.68 225.474 21.96 225.474 23.24C225.474 23.688 225.378 24.2 225.186 24.776C224.994 25.288 224.674 25.736 224.226 26.12L193.602 60.968ZM225.666 70.568C226.114 71.4 226.338 72.264 226.338 73.16C226.338 74.824 225.378 76.072 223.458 76.904C222.178 77.672 221.026 78.056 220.002 78.056C219.298 78.056 218.626 77.8 217.986 77.288C217.346 76.84 216.834 76.264 216.45 75.56L206.85 57.032C206.274 56.072 205.986 55.112 205.986 54.152C205.986 52.552 206.818 51.208 208.482 50.12C208.93 49.8 209.378 49.512 209.826 49.256C210.338 49 210.882 48.808 211.458 48.68C212.162 48.552 212.834 48.68 213.474 49.064C214.114 49.448 214.658 49.96 215.106 50.6L225.666 70.568ZM265.91 61.64C265.91 63.176 266.39 64.616 267.35 65.96C268.374 67.304 270.07 67.976 272.438 67.976H284.438C286.806 67.976 288.47 67.4 289.43 66.248C290.454 65.032 290.966 63.656 290.966 62.12V61.064C290.966 58.056 292.726 56.552 296.246 56.552C299.766 56.552 301.526 58.056 301.526 61.064V62.216C301.526 64.904 301.078 67.112 300.182 68.84C299.35 70.568 298.07 72.072 296.342 73.352C292.95 75.784 289.558 77 286.166 77H270.038C266.646 77 263.35 75.784 260.15 73.352C258.614 72.072 257.43 70.472 256.598 68.552C255.766 66.568 255.35 64.296 255.35 61.736V34.376C255.35 29.192 256.95 25.352 260.15 22.856C261.75 21.704 263.382 20.808 265.046 20.168C266.774 19.464 268.438 19.112 270.038 19.112H286.166C287.702 19.112 289.398 19.432 291.254 20.072C293.11 20.648 294.838 21.448 296.438 22.472C297.974 23.56 299.19 25.064 300.086 26.984C301.046 28.904 301.526 31.176 301.526 33.8V46.76C301.526 48.232 301.078 49.544 300.182 50.696C299.35 51.848 297.782 52.424 295.478 52.424H274.742C272.438 52.424 271.222 50.92 271.094 47.912C271.094 44.904 272.31 43.4 274.742 43.4H291.062L290.966 34.472C290.966 32.872 290.454 31.432 289.43 30.152C288.47 28.808 286.806 28.136 284.438 28.136H272.438C270.07 28.136 268.374 28.808 267.35 30.152C266.39 31.432 265.91 32.872 265.91 34.472V61.64ZM394.588 0.295998C396.636 0.295998 398.876 0.775997 401.308 1.736C403.548 2.632 404.668 4.328 404.668 6.824V72.968C404.668 76.04 402.78 77.576 399.004 77.576C395.228 77.576 393.34 76.04 393.34 72.968V23.624L390.556 23.336L386.716 35.816L375.196 74.216C374.492 76.456 372.764 77.544 370.012 77.48C368.796 77.416 367.74 77.096 366.844 76.52C365.948 75.944 365.34 75.112 365.02 74.024L358.108 51.656C356.7 47.24 355.292 42.76 353.884 38.216C352.476 33.608 350.94 28.52 349.276 22.952L346.492 23.336V72.968C346.492 76.04 344.604 77.576 340.828 77.576C337.052 77.576 335.164 76.04 335.164 72.968V6.824C335.164 4.392 336.284 2.696 338.524 1.736C340.892 0.775997 343.164 0.327997 345.34 0.391996C346.3 0.391996 347.292 0.519997 348.316 0.775997C349.34 1.032 350.3 1.416 351.196 1.92799C352.092 2.376 352.892 2.984 353.596 3.752C354.3 4.456 354.844 5.288 355.228 6.248L370.3 57.608C371.388 53.832 372.54 49.736 373.756 45.32C374.972 40.904 376.22 36.424 377.5 31.88C378.78 27.336 380.028 22.856 381.244 18.44C382.524 13.96 383.708 9.8 384.796 5.96C385.18 5.064 385.724 4.264 386.428 3.56C387.132 2.856 387.932 2.28 388.828 1.832C389.724 1.32 390.652 0.935999 391.612 0.679998C392.636 0.423998 393.628 0.295998 394.588 0.295998ZM452.992 77C451.008 77 449.12 76.744 447.328 76.232C445.536 75.656 443.808 74.856 442.144 73.832V73.928C439.008 71.944 437.44 68.296 437.44 62.984V58.28C437.44 55.656 437.888 53.384 438.784 51.464C439.744 49.48 441.056 47.912 442.72 46.76H442.624C444.224 45.672 445.92 44.872 447.712 44.36C449.504 43.784 451.232 43.496 452.896 43.496H474.112V34.568C474.112 32.968 473.6 31.528 472.576 30.248C471.616 28.904 469.952 28.232 467.584 28.232H456.352C453.92 28.232 452.224 28.84 451.264 30.056C450.368 31.208 449.92 32.584 449.92 34.184V34.952C449.92 38.28 448.128 39.944 444.544 39.944C440.96 39.944 439.168 38.28 439.168 34.952V34.088C439.168 31.464 439.616 29.256 440.512 27.464C441.472 25.672 442.752 24.168 444.352 22.952H444.256C445.92 21.864 447.648 20.968 449.44 20.264C451.296 19.56 453.056 19.208 454.72 19.208H469.312C470.912 19.208 472.608 19.56 474.4 20.264C476.256 20.968 477.984 21.864 479.584 22.952H479.488C481.152 24.168 482.432 25.768 483.328 27.752C484.224 29.672 484.672 31.912 484.672 34.472V72.968C484.672 76.04 482.912 77.576 479.392 77.576C478.688 77.576 478.016 77.544 477.376 77.48C476.8 77.416 476.256 77.256 475.744 77C475.296 76.68 474.912 76.264 474.592 75.752C474.336 75.176 474.208 74.44 474.208 73.544L474.112 52.52H454.72C453.312 52.52 452.224 52.68 451.456 53C450.688 53.32 450.08 53.832 449.632 54.536C449.12 55.624 448.736 56.488 448.48 57.128C448.288 57.704 448.192 58.376 448.192 59.144V62.888C448.192 64.552 448.672 65.832 449.632 66.728C450.656 67.56 452.384 67.976 454.816 67.976H465.568C467.936 67.976 469.12 69.48 469.12 72.488C469.12 73.768 468.832 74.856 468.256 75.752C467.68 76.584 466.784 77 465.568 77H452.992ZM528.77 60.968V73.16C528.77 76.168 527.01 77.672 523.49 77.672C519.97 77.672 518.21 76.168 518.21 73.16V4.808C518.21 1.736 519.97 0.199999 523.49 0.199999C527.01 0.199999 528.77 1.736 528.77 4.808V45.512C530.37 43.592 532.13 41.544 534.05 39.368C536.034 37.128 537.986 34.888 539.906 32.648C541.89 30.344 543.842 28.104 545.762 25.928C547.682 23.688 549.474 21.608 551.138 19.688V19.784C552.29 18.44 553.442 17.768 554.594 17.768C555.234 17.768 555.842 17.928 556.418 18.248C557.058 18.504 557.73 18.888 558.434 19.4H558.338C559.874 20.68 560.642 21.96 560.642 23.24C560.642 23.688 560.546 24.2 560.354 24.776C560.162 25.288 559.842 25.736 559.394 26.12L528.77 60.968ZM560.834 70.568C561.282 71.4 561.506 72.264 561.506 73.16C561.506 74.824 560.546 76.072 558.626 76.904C557.346 77.672 556.194 78.056 555.17 78.056C554.466 78.056 553.794 77.8 553.154 77.288C552.514 76.84 552.002 76.264 551.618 75.56L542.018 57.032C541.442 56.072 541.154 55.112 541.154 54.152C541.154 52.552 541.986 51.208 543.65 50.12C544.098 49.8 544.546 49.512 544.994 49.256C545.506 49 546.05 48.808 546.626 48.68C547.33 48.552 548.002 48.68 548.642 49.064C549.282 49.448 549.826 49.96 550.274 50.6L560.834 70.568ZM601.077 61.64C601.077 63.176 601.557 64.616 602.517 65.96C603.541 67.304 605.237 67.976 607.605 67.976H619.605C621.973 67.976 623.637 67.4 624.597 66.248C625.621 65.032 626.133 63.656 626.133 62.12V61.064C626.133 58.056 627.893 56.552 631.413 56.552C634.933 56.552 636.693 58.056 636.693 61.064V62.216C636.693 64.904 636.245 67.112 635.349 68.84C634.517 70.568 633.237 72.072 631.509 73.352C628.117 75.784 624.725 77 621.333 77H605.205C601.813 77 598.517 75.784 595.317 73.352C593.781 72.072 592.597 70.472 591.765 68.552C590.933 66.568 590.517 64.296 590.517 61.736V34.376C590.517 29.192 592.117 25.352 595.317 22.856C596.917 21.704 598.549 20.808 600.213 20.168C601.941 19.464 603.605 19.112 605.205 19.112H621.333C622.869 19.112 624.565 19.432 626.421 20.072C628.277 20.648 630.005 21.448 631.605 22.472C633.141 23.56 634.357 25.064 635.253 26.984C636.213 28.904 636.693 31.176 636.693 33.8V46.76C636.693 48.232 636.245 49.544 635.349 50.696C634.517 51.848 632.949 52.424 630.645 52.424H609.909C607.605 52.424 606.389 50.92 606.261 47.912C606.261 44.904 607.477 43.4 609.909 43.4H626.229L626.133 34.472C626.133 32.872 625.621 31.432 624.597 30.152C623.637 28.808 621.973 28.136 619.605 28.136H607.605C605.237 28.136 603.541 28.808 602.517 30.152C601.557 31.432 601.077 32.872 601.077 34.472V61.64Z" fill="#B2D0D7"/>
</svg>
