<svg width="217" height="55" viewBox="0 0 217 55" fill="none" xmlns="http://www.w3.org/2000/svg">
<rect width="216.452" height="55" rx="10" fill="#3647E3"/>
<path d="M49.7541 27.096V27.592L43.5941 31.352L43.0181 30.312L46.4261 28.264L47.7381 27.72L46.4421 27.224L42.7141 25.048L43.6101 23.56L49.7541 27.096ZM58.801 27.096V27.592L52.641 31.352L52.065 30.312L55.473 28.264L56.785 27.72L55.489 27.224L51.761 25.048L52.657 23.56L58.801 27.096ZM66.4644 31.672C66.5817 31.7893 66.747 31.9013 66.9604 32.008C67.1737 32.104 67.4564 32.152 67.8084 32.152C68.395 32.152 68.8804 32.0027 69.2644 31.704C69.659 31.3947 69.8564 30.968 69.8564 30.424C69.8564 30.0293 69.7284 29.6987 69.4724 29.432C69.227 29.1653 68.9124 28.92 68.5284 28.696C68.1444 28.472 67.7337 28.2533 67.2964 28.04C66.859 27.816 66.4484 27.5547 66.0644 27.256C65.6804 26.9573 65.3604 26.6053 65.1044 26.2C64.859 25.784 64.7364 25.272 64.7364 24.664C64.7364 24.1413 64.8324 23.688 65.0244 23.304C65.2164 22.92 65.4777 22.6053 65.8084 22.36C66.1497 22.104 66.5497 21.9173 67.0084 21.8C67.467 21.672 67.963 21.608 68.4964 21.608C69.147 21.608 69.7497 21.656 70.3044 21.752C70.8697 21.8373 71.3764 21.976 71.8244 22.168C71.8137 22.3813 71.7924 22.6267 71.7604 22.904C71.739 23.1813 71.707 23.4587 71.6644 23.736C71.6217 24.0027 71.5737 24.2587 71.5204 24.504C71.4777 24.7387 71.435 24.936 71.3924 25.096H70.7364L70.0004 22.904C69.8724 22.84 69.6804 22.7813 69.4244 22.728C69.179 22.6747 68.923 22.648 68.6564 22.648C68.2084 22.648 67.8297 22.7653 67.5204 23C67.211 23.2347 67.0564 23.576 67.0564 24.024C67.0564 24.4293 67.1844 24.776 67.4404 25.064C67.6964 25.3413 68.0164 25.5973 68.4004 25.832C68.7844 26.0667 69.2004 26.3013 69.6484 26.536C70.107 26.76 70.5284 27.0213 70.9124 27.32C71.2964 27.6187 71.6164 27.9707 71.8724 28.376C72.1284 28.7707 72.2564 29.2613 72.2564 29.848C72.2564 30.9147 71.8937 31.7413 71.1684 32.328C70.4537 32.904 69.3977 33.192 68.0004 33.192C67.659 33.192 67.3124 33.1707 66.9604 33.128C66.619 33.0853 66.2937 33.0267 65.9844 32.952C65.675 32.8773 65.3977 32.7973 65.1524 32.712C64.9177 32.6267 64.7417 32.536 64.6244 32.44C64.635 32.1947 64.6617 31.9333 64.7044 31.656C64.747 31.368 64.7897 31.0853 64.8324 30.808C64.8857 30.52 64.939 30.248 64.9924 29.992C65.0457 29.736 65.099 29.512 65.1524 29.32H65.8084L66.4644 31.672ZM78.0422 33H73.1942V32.392C73.3756 32.296 73.5836 32.2053 73.8182 32.12C74.0636 32.0347 74.2929 31.9707 74.5062 31.928V22.872C74.2502 22.8293 74.0049 22.7653 73.7702 22.68C73.5356 22.5947 73.3436 22.504 73.1942 22.408V21.8H78.0422V22.408C77.8822 22.5147 77.7009 22.6107 77.4982 22.696C77.3062 22.7813 77.1089 22.84 76.9062 22.872V26.744H81.1462V22.872C80.9116 22.8293 80.6982 22.7653 80.5062 22.68C80.3249 22.5947 80.1596 22.504 80.0102 22.408V21.8H84.8582V22.408C84.6769 22.5253 84.4689 22.6213 84.2342 22.696C83.9996 22.7707 83.7702 22.8293 83.5462 22.872V31.928C83.7916 31.9707 84.0262 32.0347 84.2502 32.12C84.4849 32.2053 84.6876 32.296 84.8582 32.392V33H80.0102V32.392C80.1702 32.296 80.3462 32.2053 80.5382 32.12C80.7302 32.0347 80.9329 31.9707 81.1462 31.928V27.784H76.9062V31.928C77.1196 31.9707 77.3169 32.0293 77.4982 32.104C77.6796 32.1787 77.8609 32.2747 78.0422 32.392V33ZM85.7951 27.4C85.7951 26.568 85.9125 25.8 86.1471 25.096C86.3818 24.3813 86.7285 23.768 87.1871 23.256C87.6458 22.7333 88.2111 22.328 88.8831 22.04C89.5551 21.752 90.3285 21.608 91.2031 21.608C92.0778 21.608 92.8511 21.752 93.5231 22.04C94.1951 22.328 94.7551 22.7333 95.2031 23.256C95.6618 23.768 96.0085 24.3813 96.2431 25.096C96.4778 25.8 96.5951 26.568 96.5951 27.4C96.5951 28.232 96.4778 29.0053 96.2431 29.72C96.0085 30.424 95.6618 31.0373 95.2031 31.56C94.7551 32.072 94.1951 32.472 93.5231 32.76C92.8511 33.048 92.0778 33.192 91.2031 33.192C90.3285 33.192 89.5551 33.048 88.8831 32.76C88.2111 32.472 87.6458 32.072 87.1871 31.56C86.7285 31.0373 86.3818 30.424 86.1471 29.72C85.9125 29.0053 85.7951 28.232 85.7951 27.4ZM88.5151 27.4C88.5151 28.0827 88.5685 28.7173 88.6751 29.304C88.7818 29.88 88.9471 30.3813 89.1711 30.808C89.4058 31.224 89.6991 31.5547 90.0511 31.8C90.4138 32.0347 90.8458 32.152 91.3471 32.152C91.8058 32.152 92.1951 32.0347 92.5151 31.8C92.8351 31.5547 93.0965 31.224 93.2991 30.808C93.5018 30.3813 93.6458 29.88 93.7311 29.304C93.8271 28.7173 93.8751 28.0827 93.8751 27.4C93.8751 26.7173 93.8218 26.088 93.7151 25.512C93.6191 24.9253 93.4591 24.424 93.2351 24.008C93.0218 23.5813 92.7338 23.2507 92.3711 23.016C92.0191 22.7707 91.5871 22.648 91.0751 22.648C90.5845 22.648 90.1738 22.7707 89.8431 23.016C89.5125 23.2507 89.2458 23.5813 89.0431 24.008C88.8511 24.424 88.7125 24.9253 88.6271 25.512C88.5525 26.088 88.5151 26.7173 88.5151 27.4ZM101.266 31.928C101.554 31.9707 101.836 32.0347 102.114 32.12C102.402 32.1947 102.658 32.2853 102.882 32.392V33H97.5536V32.392C97.7563 32.2747 97.9696 32.1787 98.1936 32.104C98.4283 32.0293 98.6523 31.9707 98.8656 31.928V22.872C98.6203 22.8293 98.3856 22.7707 98.1616 22.696C97.9376 22.6107 97.735 22.5147 97.5536 22.408V21.8H99.5696C99.9963 21.8 100.482 21.7787 101.026 21.736C101.58 21.6933 102.087 21.672 102.546 21.672C103.111 21.672 103.66 21.7307 104.194 21.848C104.738 21.9547 105.218 22.1413 105.634 22.408C106.06 22.6747 106.402 23.032 106.658 23.48C106.914 23.9173 107.042 24.4667 107.042 25.128C107.042 25.7573 106.914 26.3013 106.658 26.76C106.412 27.2187 106.082 27.5973 105.666 27.896C105.25 28.1947 104.77 28.4187 104.226 28.568C103.682 28.7067 103.122 28.776 102.546 28.776C102.492 28.776 102.407 28.776 102.29 28.776C102.172 28.776 102.044 28.776 101.906 28.776C101.778 28.7653 101.65 28.76 101.522 28.76C101.404 28.7493 101.319 28.7387 101.266 28.728V31.928ZM102.13 22.712C101.916 22.712 101.746 22.7227 101.618 22.744C101.5 22.7547 101.383 22.776 101.266 22.808V27.672C101.362 27.704 101.506 27.7253 101.698 27.736C101.89 27.736 102.044 27.736 102.162 27.736C102.45 27.736 102.727 27.688 102.994 27.592C103.26 27.496 103.495 27.3467 103.698 27.144C103.911 26.9413 104.082 26.68 104.21 26.36C104.338 26.04 104.402 25.656 104.402 25.208C104.402 24.3547 104.194 23.7253 103.778 23.32C103.362 22.9147 102.812 22.712 102.13 22.712ZM119.62 21.8H123.588V22.408C123.386 22.568 123.162 22.712 122.916 22.84C122.671 22.9573 122.442 23.048 122.228 23.112V33.192H120.868L115.22 25.032L114.58 23.8H114.532L114.676 25.08V31.752C114.89 31.8053 115.124 31.896 115.38 32.024C115.647 32.1413 115.871 32.264 116.052 32.392V33H112.1V32.392C112.292 32.264 112.5 32.1467 112.724 32.04C112.959 31.9227 113.199 31.8267 113.444 31.752V23.016C113.231 22.9307 113.018 22.8347 112.804 22.728C112.591 22.6213 112.399 22.5093 112.228 22.392V21.8H115.684L120.276 28.456L121.012 29.832H121.076L120.996 28.456V23.112C120.74 23.0267 120.49 22.9253 120.244 22.808C120.01 22.68 119.802 22.5467 119.62 22.408V21.8ZM124.529 27.4C124.529 26.568 124.647 25.8 124.881 25.096C125.116 24.3813 125.463 23.768 125.921 23.256C126.38 22.7333 126.945 22.328 127.617 22.04C128.289 21.752 129.063 21.608 129.937 21.608C130.812 21.608 131.585 21.752 132.257 22.04C132.929 22.328 133.489 22.7333 133.937 23.256C134.396 23.768 134.743 24.3813 134.977 25.096C135.212 25.8 135.329 26.568 135.329 27.4C135.329 28.232 135.212 29.0053 134.977 29.72C134.743 30.424 134.396 31.0373 133.937 31.56C133.489 32.072 132.929 32.472 132.257 32.76C131.585 33.048 130.812 33.192 129.937 33.192C129.063 33.192 128.289 33.048 127.617 32.76C126.945 32.472 126.38 32.072 125.921 31.56C125.463 31.0373 125.116 30.424 124.881 29.72C124.647 29.0053 124.529 28.232 124.529 27.4ZM127.249 27.4C127.249 28.0827 127.303 28.7173 127.409 29.304C127.516 29.88 127.681 30.3813 127.905 30.808C128.14 31.224 128.433 31.5547 128.785 31.8C129.148 32.0347 129.58 32.152 130.081 32.152C130.54 32.152 130.929 32.0347 131.249 31.8C131.569 31.5547 131.831 31.224 132.033 30.808C132.236 30.3813 132.38 29.88 132.465 29.304C132.561 28.7173 132.609 28.0827 132.609 27.4C132.609 26.7173 132.556 26.088 132.449 25.512C132.353 24.9253 132.193 24.424 131.969 24.008C131.756 23.5813 131.468 23.2507 131.105 23.016C130.753 22.7707 130.321 22.648 129.809 22.648C129.319 22.648 128.908 22.7707 128.577 23.016C128.247 23.2507 127.98 23.5813 127.777 24.008C127.585 24.424 127.447 24.9253 127.361 25.512C127.287 26.088 127.249 26.7173 127.249 27.4ZM149.808 22.872C149.381 22.808 148.933 22.6533 148.464 22.408V21.8H152.496V22.408C152.315 22.5253 152.123 22.6213 151.92 22.696C151.717 22.7707 151.52 22.8293 151.328 22.872L148.496 33L146.832 33.192L144.352 25.448L141.936 33L140.256 33.192L137.136 22.872C136.912 22.8293 136.704 22.7707 136.512 22.696C136.32 22.6107 136.139 22.5147 135.968 22.408V21.8H141.152V22.408C140.971 22.504 140.763 22.5947 140.528 22.68C140.304 22.7547 140.069 22.8187 139.824 22.872L141.312 28.52L141.648 30.6H141.68L142.24 28.44L144.368 21.8H145.312L147.584 28.36L148.128 30.44H148.16L148.528 28.328L149.808 22.872ZM157.852 27.816V27.32L164.012 23.56L164.588 24.6L161.18 26.648L159.868 27.192L161.164 27.688L164.892 29.88L163.996 31.352L157.852 27.816ZM166.899 27.816V27.32L173.059 23.56L173.635 24.6L170.227 26.648L168.915 27.192L170.211 27.688L173.939 29.88L173.043 31.352L166.899 27.816Z" fill="#E8E8E8"/>
</svg>
